<svg viewBox="0 800" xmlns="http://www.w3.org/2000/svg">
  <path fill="#08BDBA" d="M27.4,-49.9C35,-43.1,40.2,-34.7,48.1,-26.1C56,-17.5,66.6,-8.7,67.1,0.3C67.6,9.3,58.1,18.7,49.7,26.5C41.3,34.2,34.2,40.5,26.1,45.8C18,51,9,55.4,-2.8,60.2C-14.5,65,-29.1,70.2,-43.2,68.4C-57.3,66.7,-71.1,57.8,-78.7,45.2C-86.2,32.7,-87.6,16.3,-85.9,1C-84.2,-14.4,-79.4,-28.7,-67.7,-34.2C-56,-39.6,-37.4,-36.1,-25,-40.1C-12.6,-44.1,-6.3,-55.6,1.8,-58.7C9.9,-61.9,19.8,-56.7,27.4,-49.9Z" transform="translate(300 -20)"/>
</svg>
